<svg xmlns="http://www.w3.org/2000/svg" width="117" height="122" fill="none"><g filter="url(#a)"><path fill="url(#b)" d="M53.5 90.113a10 10 0 0 0 10 0l17.713-10.226a10 10 0 0 0 5-8.66V50.773a10 10 0 0 0-5-8.66L63.5 31.887a10 10 0 0 0-10 0L35.787 42.113a10 10 0 0 0-5 8.66v20.453a10 10 0 0 0 5 8.66L53.5 90.114Z"/><path stroke="url(#c)" d="M53.75 89.68a9.5 9.5 0 0 0 9.5 0l17.713-10.226a9.5 9.5 0 0 0 4.75-8.227V50.773a9.5 9.5 0 0 0-4.75-8.227L63.25 32.32a9.5 9.5 0 0 0-9.5 0L36.037 42.546a9.5 9.5 0 0 0-4.75 8.227v20.453a9.5 9.5 0 0 0 4.75 8.228L53.75 89.68Z" style="mix-blend-mode:overlay"/></g><path fill="url(#d)" d="M50.281 68.406c-2.46 0-3.68-1.219-3.68-3.633V52.914c0-2.414 1.22-3.633 3.68-3.633h11.766c2.437 0 3.668 1.219 3.668 3.633v1.793h2.016c2.437 0 3.667 1.219 3.667 3.633V70.2c0 2.413-1.23 3.632-3.667 3.632H55.965c-2.461 0-3.68-1.219-3.68-3.633v-1.793h-2.004Zm.024-1.887h1.98v-8.18c0-2.425 1.219-3.632 3.68-3.632h7.863v-1.688c0-1.218-.656-1.851-1.816-1.851H50.305c-1.172 0-1.817.633-1.817 1.852v11.648c0 1.219.645 1.851 1.817 1.851Zm12.152 2.614c.211 0 .375-.164.434-.387.668-3.55.996-4.219 4.687-4.71a.437.437 0 0 0 .399-.446c0-.223-.165-.399-.399-.434-3.68-.504-4.172-1.207-4.687-4.687-.047-.235-.223-.41-.434-.41-.234 0-.398.164-.469.398-.656 3.563-.984 4.195-4.664 4.7-.246.034-.41.21-.41.433 0 .234.164.41.41.445 3.692.375 4.16 1.16 4.664 4.7.047.234.211.398.469.398Zm-4.77 1.969a.353.353 0 0 0 .352-.27c.316-1.77.2-1.84 2.121-2.133.164-.035.293-.164.293-.328a.33.33 0 0 0-.293-.328c-1.91-.328-1.804-.41-2.12-2.121-.048-.176-.165-.305-.352-.305-.165 0-.282.117-.34.305-.34 1.71-.188 1.793-2.11 2.121a.32.32 0 0 0-.293.328c0 .188.117.293.317.328 1.898.293 1.746.364 2.086 2.098.058.187.164.305.34.305Z" style="mix-blend-mode:overlay"/><defs><linearGradient id="c" x1="50.7" x2="79.296" y1="48.609" y2="89.111" gradientUnits="userSpaceOnUse"><stop stop-color="#fff"/><stop offset="1" stop-color="#fff" stop-opacity=".5"/></linearGradient><linearGradient id="d" x1="59" x2="59" y1="47" y2="76" gradientUnits="userSpaceOnUse"><stop stop-color="#fff" stop-opacity=".8"/><stop offset="1" stop-color="#fff" stop-opacity=".3"/></linearGradient><radialGradient id="b" cx="0" cy="0" r="1" gradientTransform="rotate(92.637 13.755 61.255) scale(162.172 72.7296)" gradientUnits="userSpaceOnUse"><stop stop-color="#602EA6"/><stop offset="1" stop-color="#C977D6"/></radialGradient><filter id="a" width="115.426" height="120.906" x=".787" y=".547" color-interpolation-filters="sRGB" filterUnits="userSpaceOnUse"><feFlood flood-opacity="0" result="BackgroundImageFix"/><feGaussianBlur in="BackgroundImageFix" stdDeviation="2"/><feComposite in2="SourceAlpha" operator="in" result="effect1_backgroundBlur_1735_143"/><feColorMatrix in="SourceAlpha" result="hardAlpha" values="0 0 0 0 0 0 0 0 0 0 0 0 0 0 0 0 0 0 127 0"/><feOffset/><feGaussianBlur stdDeviation="15"/><feComposite in2="hardAlpha" operator="out"/><feColorMatrix values="0 0 0 0 0.462745 0 0 0 0 0.239216 0 0 0 0 0.690196 0 0 0 1 0"/><feBlend in2="effect1_backgroundBlur_1735_143" result="effect2_dropShadow_1735_143"/><feBlend in="SourceGraphic" in2="effect2_dropShadow_1735_143" result="shape"/></filter></defs></svg>