<svg xmlns="http://www.w3.org/2000/svg" width="117" height="122" fill="none"><g filter="url(#a)"><path fill="url(#b)" d="M53.5 90.113a10 10 0 0 0 10 0l17.713-10.226a10 10 0 0 0 5-8.66V50.773a10 10 0 0 0-5-8.66L63.5 31.887a10 10 0 0 0-10 0L35.787 42.113a10 10 0 0 0-5 8.66v20.453a10 10 0 0 0 5 8.66L53.5 90.114Z"/><path stroke="url(#c)" d="M53.75 89.68a9.5 9.5 0 0 0 9.5 0l17.713-10.226a9.5 9.5 0 0 0 4.75-8.227V50.773a9.5 9.5 0 0 0-4.75-8.227L63.25 32.32a9.5 9.5 0 0 0-9.5 0L36.037 42.546a9.5 9.5 0 0 0-4.75 8.227v20.453a9.5 9.5 0 0 0 4.75 8.228L53.75 89.68Z" style="mix-blend-mode:overlay"/></g><path fill="url(#d)" d="M52.242 74.102c-2.379 0-3.597-1.208-3.597-3.621V52.668c0-2.45 1.207-3.68 3.632-3.68h12.446c2.425 0 3.633 1.242 3.633 3.68v13.441c0 1.172-.54 1.747-.985 2.192-1.453 1.465-1.148 3.375.328 3.96a.973.973 0 0 1 .657.903.933.933 0 0 1-.938.938H52.242ZM64.63 50.875h-11.18v15.973h12c.657 0 1.02-.364 1.02-.996V52.703c0-1.172-.621-1.828-1.84-1.828ZM50.53 67.328a3.22 3.22 0 0 1 1.383-.457v-15.96c-.914.151-1.383.773-1.383 1.792v14.625ZM55.547 56.5a.77.77 0 0 1-.762-.773.76.76 0 0 1 .762-.762h8.789a.76.76 0 0 1 .762.762.77.77 0 0 1-.762.773h-8.79Zm0 3.223a.77.77 0 0 1-.762-.774.76.76 0 0 1 .762-.761h6.668a.76.76 0 0 1 .762.761.77.77 0 0 1-.762.774h-6.668Zm-3.2 12.492h12.704c-.621-1.008-.715-2.297-.164-3.516a2.135 2.135 0 0 1-.41.035H52.453c-1.172 0-1.922.68-1.922 1.735 0 1.113.633 1.746 1.817 1.746Z" style="mix-blend-mode:overlay"/><defs><linearGradient id="c" x1="50.7" x2="79.296" y1="48.609" y2="89.111" gradientUnits="userSpaceOnUse"><stop stop-color="#fff"/><stop offset="1" stop-color="#fff" stop-opacity=".5"/></linearGradient><linearGradient id="d" x1="58.5" x2="58.5" y1="47" y2="76" gradientUnits="userSpaceOnUse"><stop stop-color="#fff" stop-opacity=".8"/><stop offset="1" stop-color="#fff" stop-opacity=".3"/></linearGradient><radialGradient id="b" cx="0" cy="0" r="1" gradientTransform="rotate(92.637 13.755 61.255) scale(162.172 72.7296)" gradientUnits="userSpaceOnUse"><stop stop-color="#602EA6"/><stop offset="1" stop-color="#C977D6"/></radialGradient><filter id="a" width="115.426" height="120.906" x=".787" y=".547" color-interpolation-filters="sRGB" filterUnits="userSpaceOnUse"><feFlood flood-opacity="0" result="BackgroundImageFix"/><feGaussianBlur in="BackgroundImageFix" stdDeviation="2"/><feComposite in2="SourceAlpha" operator="in" result="effect1_backgroundBlur_1735_165"/><feColorMatrix in="SourceAlpha" result="hardAlpha" values="0 0 0 0 0 0 0 0 0 0 0 0 0 0 0 0 0 0 127 0"/><feOffset/><feGaussianBlur stdDeviation="15"/><feComposite in2="hardAlpha" operator="out"/><feColorMatrix values="0 0 0 0 0.462745 0 0 0 0 0.239216 0 0 0 0 0.690196 0 0 0 1 0"/><feBlend in2="effect1_backgroundBlur_1735_165" result="effect2_dropShadow_1735_165"/><feBlend in="SourceGraphic" in2="effect2_dropShadow_1735_165" result="shape"/></filter></defs></svg>